<svg id="visual" viewBox="0 0 3840 2640" width="3840" height="2640" xmlns="http://www.w3.org/2000/svg" xmlns:xlink="http://www.w3.org/1999/xlink" version="1.1"><rect x="0" y="0" width="3840" height="2640" fill="#50738d"></rect><path d="M0 1878L91.5 1828.7C183 1779.3 366 1680.7 548.8 1627.2C731.7 1573.7 914.3 1565.3 1097.2 1627.5C1280 1689.7 1463 1822.3 1645.8 1889.5C1828.7 1956.7 2011.3 1958.3 2194.2 1923.8C2377 1889.3 2560 1818.7 2742.8 1774.8C2925.7 1731 3108.3 1714 3291.2 1683C3474 1652 3657 1607 3748.5 1584.5L3840 1562L3840 2641L3748.5 2641C3657 2641 3474 2641 3291.2 2641C3108.3 2641 2925.7 2641 2742.8 2641C2560 2641 2377 2641 2194.2 2641C2011.3 2641 1828.7 2641 1645.8 2641C1463 2641 1280 2641 1097.2 2641C914.3 2641 731.7 2641 548.8 2641C366 2641 183 2641 91.5 2641L0 2641Z" fill="#fa7268"></path><path d="M0 2021L91.5 1999.7C183 1978.3 366 1935.7 548.8 1905.7C731.7 1875.7 914.3 1858.3 1097.2 1843.2C1280 1828 1463 1815 1645.8 1829.2C1828.7 1843.3 2011.3 1884.7 2194.2 1926.8C2377 1969 2560 2012 2742.8 1999.5C2925.7 1987 3108.3 1919 3291.2 1921.5C3474 1924 3657 1997 3748.5 2033.5L3840 2070L3840 2641L3748.5 2641C3657 2641 3474 2641 3291.2 2641C3108.3 2641 2925.7 2641 2742.8 2641C2560 2641 2377 2641 2194.2 2641C2011.3 2641 1828.7 2641 1645.8 2641C1463 2641 1280 2641 1097.2 2641C914.3 2641 731.7 2641 548.8 2641C366 2641 183 2641 91.5 2641L0 2641Z" fill="#ef5f67"></path><path d="M0 2003L91.5 1996.3C183 1989.7 366 1976.3 548.8 1992.2C731.7 2008 914.3 2053 1097.2 2048.3C1280 2043.7 1463 1989.3 1645.8 2003.7C1828.7 2018 2011.3 2101 2194.2 2147.3C2377 2193.7 2560 2203.3 2742.8 2177.3C2925.7 2151.3 3108.3 2089.7 3291.2 2091.3C3474 2093 3657 2158 3748.5 2190.5L3840 2223L3840 2641L3748.5 2641C3657 2641 3474 2641 3291.2 2641C3108.3 2641 2925.7 2641 2742.8 2641C2560 2641 2377 2641 2194.2 2641C2011.3 2641 1828.7 2641 1645.8 2641C1463 2641 1280 2641 1097.2 2641C914.3 2641 731.7 2641 548.8 2641C366 2641 183 2641 91.5 2641L0 2641Z" fill="#e34c67"></path><path d="M0 2184L91.5 2180.8C183 2177.7 366 2171.3 548.8 2185.8C731.7 2200.3 914.3 2235.7 1097.2 2229.3C1280 2223 1463 2175 1645.8 2151.3C1828.7 2127.7 2011.3 2128.3 2194.2 2142.5C2377 2156.7 2560 2184.3 2742.8 2197C2925.7 2209.7 3108.3 2207.3 3291.2 2213.3C3474 2219.3 3657 2233.7 3748.5 2240.8L3840 2248L3840 2641L3748.5 2641C3657 2641 3474 2641 3291.2 2641C3108.3 2641 2925.7 2641 2742.8 2641C2560 2641 2377 2641 2194.2 2641C2011.3 2641 1828.7 2641 1645.8 2641C1463 2641 1280 2641 1097.2 2641C914.3 2641 731.7 2641 548.8 2641C366 2641 183 2641 91.5 2641L0 2641Z" fill="#d53867"></path><path d="M0 2365L91.5 2369C183 2373 366 2381 548.8 2379.7C731.7 2378.3 914.3 2367.7 1097.2 2375.8C1280 2384 1463 2411 1645.8 2419.3C1828.7 2427.7 2011.3 2417.3 2194.2 2399.5C2377 2381.7 2560 2356.3 2742.8 2375.8C2925.7 2395.3 3108.3 2459.7 3291.2 2477.7C3474 2495.7 3657 2467.3 3748.5 2453.2L3840 2439L3840 2641L3748.5 2641C3657 2641 3474 2641 3291.2 2641C3108.3 2641 2925.7 2641 2742.8 2641C2560 2641 2377 2641 2194.2 2641C2011.3 2641 1828.7 2641 1645.8 2641C1463 2641 1280 2641 1097.2 2641C914.3 2641 731.7 2641 548.8 2641C366 2641 183 2641 91.5 2641L0 2641Z" fill="#c62368"></path></svg>